<svg width="379" height="292" viewBox="0 0 379 292" fill="none" xmlns="http://www.w3.org/2000/svg">
<path d="M379 256.037H0V256.232H379V256.037Z" fill="#EBEBEB"/>
<path d="M341.024 268.619H315.919V268.815H341.024V268.619Z" fill="#EBEBEB"/>
<path d="M251.065 270.746H244.478V270.942H251.065V270.746Z" fill="#EBEBEB"/>
<path d="M315.161 261.362H300.615V261.558H315.161V261.362Z" fill="#EBEBEB"/>
<path d="M72.5027 262.676H39.7646V262.872H72.5027V262.676Z" fill="#EBEBEB"/>
<path d="M84.0545 262.676H79.2563V262.872H84.0545V262.676Z" fill="#EBEBEB"/>
<path d="M170.664 265.976H99.6543V266.172H170.664V265.976Z" fill="#EBEBEB"/>
<path d="M179.646 221.16H33.284C32.1374 221.158 31.0384 220.686 30.2284 219.849C29.4183 219.012 28.9634 217.877 28.9634 216.694V4.43613C28.9734 3.26002 29.4327 2.13547 30.2417 1.30674C31.0507 0.478004 32.1439 0.0120245 33.284 0.0100098H179.646C180.794 0.0100098 181.895 0.480451 182.707 1.31784C183.518 2.15523 183.974 3.29098 183.974 4.47523V216.694C183.974 217.879 183.518 219.014 182.707 219.852C181.895 220.689 180.794 221.16 179.646 221.16ZM33.284 0.16641C32.1876 0.168482 31.1369 0.619239 30.3624 1.41974C29.5879 2.22025 29.1529 3.30508 29.1529 4.43613V216.694C29.1529 217.825 29.5879 218.91 30.3624 219.711C31.1369 220.511 32.1876 220.962 33.284 220.964H179.646C180.743 220.962 181.795 220.512 182.57 219.711C183.346 218.911 183.783 217.826 183.785 216.694V4.43613C183.783 3.30436 183.346 2.21954 182.57 1.41926C181.795 0.618985 180.743 0.168478 179.646 0.16641H33.284Z" fill="#EBEBEB"/>
<path d="M343.609 221.16H197.239C196.092 221.158 194.992 220.686 194.181 219.85C193.37 219.013 192.913 217.878 192.911 216.694V4.43613C192.923 3.25931 193.384 2.13476 194.194 1.30625C195.005 0.477731 196.099 0.0120025 197.239 0.0100098H343.609C344.748 0.0140797 345.839 0.480969 346.646 1.30948C347.454 2.13799 347.912 3.26137 347.922 4.43613V216.694C347.922 217.876 347.468 219.009 346.66 219.846C345.851 220.683 344.754 221.155 343.609 221.16ZM197.239 0.16641C196.142 0.168478 195.091 0.618985 194.315 1.41926C193.539 2.21954 193.103 3.30436 193.101 4.43613V216.694C193.103 217.826 193.539 218.911 194.315 219.711C195.091 220.512 196.142 220.962 197.239 220.964H343.609C344.706 220.962 345.758 220.512 346.533 219.711C347.309 218.911 347.746 217.826 347.748 216.694V4.43613C347.746 3.30436 347.309 2.21954 346.533 1.41926C345.758 0.618985 344.706 0.168478 343.609 0.16641H197.239Z" fill="#EBEBEB"/>
<path d="M70.5318 256.045H18.1919C23.8542 250.665 37.2177 251.032 37.2177 251.032C37.2177 251.032 27.9474 240.764 31.3659 234.172C34.7845 227.58 43.9639 241.992 43.9639 241.992C43.9639 241.992 32.4271 220.534 36.7098 215.13C40.9925 209.727 52.5065 238.676 52.5065 238.676C52.5065 238.676 45.4799 208.092 49.7171 207.24C53.9543 206.388 58.3204 236.244 58.3204 236.244C58.3204 236.244 56.8044 208.937 60.3443 209.719C63.8841 210.501 62.1559 246.113 62.1559 246.113C62.1559 246.113 65.7185 227.932 67.2421 233.734C68.7657 239.537 65.7261 251.963 65.7261 251.963C66.88 251.885 68.0192 252.264 68.9119 253.023C69.8047 253.781 70.3839 254.861 70.5318 256.045Z" fill="#E0E0E0"/>
<path d="M67.4014 250.101C67.1285 246.191 58.3054 113.775 59.3136 64.525L55.5994 64.267C55.5994 64.267 50.9831 213.003 54.8414 249.601L67.4014 250.101Z" fill="#E0E0E0"/>
<path d="M58.3282 80.9626L67.879 72.9471L68.8341 67.9736L74.5797 58.9415L75.8077 58.4801L70.1454 68.693L69.9256 72.1182L78.5213 70.4916L82.1218 63.6413L85.927 60.5602L86.4879 61.5768L83.2512 64.5562L80.6058 71.8836L68.8265 74.9334L56.5317 90.2997L58.3282 80.9626Z" fill="#E0E0E0"/>
<path d="M56.4485 73.5181L55.9861 76.8728L45.6545 66.6677L39.2873 65.3696L34.3755 61.8741L34.7166 61.5378L39.3783 64.6033L44.5478 64.8613L39.6512 58.574L34.8303 54.9534L35.1562 54.7422L39.9923 57.9719L47.9513 66.2846L47.163 58.6835L45.321 55.4539L45.1391 54.5624L47.4661 58.0814L53.515 56.0247L54.0153 56.4157L47.8148 58.6913L48.9291 67.0744L56.4485 73.5181Z" fill="#E0E0E0"/>
<path d="M90.8387 60.4195C91.0737 59.0589 88.9816 58.0735 86.7303 57.925C85.0643 57.8108 83.4108 57.5491 81.7882 57.143C82.0004 56.6503 81.8488 56.0638 82.152 55.2192C82.8115 53.3737 82.4628 52.0912 80.4768 50.5272C78.4909 48.9632 76.5049 49.2369 72.1388 49.7452C67.7728 50.2535 68.4095 48.2438 64.4982 46.3123C60.5869 44.3807 46.9657 45.1862 44.4643 46.9848C42.9483 48.0639 37.0738 47.4305 35.4365 50.1128C33.7992 52.795 24.1423 52.0834 25.4233 54.3825C26.7043 56.6816 28.2279 56.7832 27.9778 60.6385C27.7276 64.4938 31.1007 63.2035 34.4814 64.6502C37.8621 66.0969 37.4073 63.3833 39.6206 63.2113C41.834 63.0393 41.2276 62.8047 43.5016 61.7177C45.7756 60.6307 45.4497 61.9992 49.0577 63.8682C51.0437 64.9004 51.7865 63.6492 52.4005 62.3042C52.7644 63.1722 52.355 64.439 53.0979 65.9092C53.6891 67.09 56.0768 67.3481 58.3508 67.1291C60.8446 72.0088 61.9134 67.9111 65.0364 68.2865C68.3337 68.654 73.291 65.9405 75.6484 65.6824C78.0058 65.4243 78.127 64.7909 80.5299 66.7068C82.9328 68.6227 93.2643 64.8769 94.2421 62.9454C95.2199 61.0139 90.6113 61.788 90.8387 60.4195Z" fill="#E0E0E0"/>
<path d="M134.856 257.585C134.621 254.262 127.109 140.989 127.943 98.8392L124.759 98.6202C124.759 98.6202 120.81 225.828 124.115 257.116L134.856 257.585Z" fill="#E0E0E0"/>
<path d="M127.094 112.931L135.265 106.073L136.084 101.819L140.995 94.1002L142.049 93.7014L137.205 102.429L137.016 105.369L144.368 103.969L147.446 98.1119L150.698 95.4766L151.183 96.3446L148.416 98.8939L146.15 105.158L136.068 107.777L125.562 120.907L127.094 112.931Z" fill="#E0E0E0"/>
<path d="M125.487 106.558L125.093 109.427L116.255 100.7L110.812 99.5899L106.613 96.6027L106.901 96.3133L110.888 98.933L115.315 99.152L111.123 93.7797L106.999 90.6829L107.28 90.5031L111.419 93.2635L118.225 100.372L117.551 93.8735L115.974 91.113L115.815 90.3467L117.801 93.3574L122.978 91.5979L123.41 91.9341L118.104 93.8813L119.059 101.052L125.487 106.558Z" fill="#E0E0E0"/>
<path d="M154.905 95.3593C155.102 94.1941 153.313 93.3652 151.388 93.2244C149.964 93.1257 148.551 92.8954 147.166 92.5362C147.34 92.1218 147.211 91.6213 147.477 90.894C148.038 89.33 147.734 88.2587 146.044 86.8824C144.354 85.5061 142.641 85.7798 138.934 86.2255C135.227 86.6712 135.75 84.943 132.4 83.293C129.05 81.643 117.407 82.3311 115.262 83.8717C113.973 84.7944 108.94 84.2549 107.545 86.5148C106.151 88.7748 97.8884 88.1961 98.9799 90.159C100.071 92.1218 101.375 92.2156 101.163 95.5C100.951 98.7844 103.839 97.6896 106.727 98.9252C109.615 100.161 109.236 97.846 111.123 97.6974C113.01 97.5489 112.495 97.3534 114.443 96.4228C116.391 95.4922 116.111 96.6574 119.196 98.2605C120.894 99.1441 121.523 98.0806 122.053 96.9545C122.364 97.6974 122.016 98.7844 122.645 100.043C123.153 101.044 125.199 101.271 127.147 101.084C129.277 105.259 130.179 101.779 132.862 102.077C135.682 102.389 139.919 100.09 141.905 99.8479C143.891 99.6055 144.02 99.0659 146.074 100.724C148.129 102.382 156.974 99.1598 157.808 97.5019C158.642 95.8441 154.708 96.5244 154.905 95.3593Z" fill="#E0E0E0"/>
<path d="M108.296 203.002C107.591 197.848 94.3182 92.0592 91.3089 26.4181H86.3364C86.3364 26.4181 89.1334 159.037 97.4714 207.373L108.296 203.002Z" fill="#E6E6E6"/>
<path d="M92.9082 255.521C92.9082 255.521 118.801 205.606 135.243 197.887C137.57 196.8 142.762 199.835 145.854 197.887C148.947 195.94 155.746 182.607 160.954 182.881C166.161 183.154 190.16 143.452 199.354 140.614L206.32 139.832C206.32 139.832 216.932 129.251 219.343 128.766C221.753 128.282 228.643 139.613 228.643 139.613L225.399 148.215C225.399 148.215 230.94 160.727 231.743 162.033C232.547 163.339 228.355 194.235 228.643 196.12C228.931 198.005 235.738 223.803 239.339 227.814C242.939 231.826 239.339 256.139 239.339 256.139L92.9082 255.521Z" fill="#E6E6E6"/>
<path d="M37.1421 255.341H169.11C154.799 247.278 121.106 247.779 121.106 247.779C121.106 247.779 144.475 232.397 135.856 222.544C127.238 212.691 104.164 234.274 104.164 234.274C104.164 234.274 133.181 202.102 122.356 194.079C111.532 186.056 82.5387 229.316 82.5387 229.316C82.5387 229.316 100.17 183.545 89.5654 182.239C78.961 180.934 67.879 225.648 67.879 225.648C67.879 225.648 71.669 184.789 62.7625 185.954C53.856 187.119 58.169 240.444 58.169 240.444C58.169 240.444 49.217 213.261 45.3815 221.942C41.5461 230.622 49.2701 249.226 49.2701 249.226C40.3863 249.296 37.847 253.003 37.1421 255.341Z" fill="#F0F0F0"/>
<path d="M91.4302 48.3845L103.452 36.8344L104.286 30.1248L111.138 17.5659L112.738 16.8386L106.097 30.9537V35.5362L117.399 32.5725L121.599 23.1181L126.382 18.6607L127.223 19.9588L123.175 24.2285L120.287 34.2225L104.877 39.3915L89.8535 60.9747L91.4302 48.3845Z" fill="#E6E6E6"/>
<path d="M88.2842 38.6487L87.9583 43.153L73.3137 30.5393L64.7256 29.3976L57.8809 25.2061L58.3053 24.7213L64.7787 28.3654L71.684 28.2324L64.6195 20.3186L57.8809 15.9472L58.3053 15.6344L65.0212 19.4897L76.3457 29.8121L74.6251 19.7634L71.8887 15.6344L71.5779 14.4692L74.9738 18.9423L82.8418 15.6344L83.5467 16.1114L75.4892 19.7243L77.7101 30.7739L88.2842 38.6487Z" fill="#E6E6E6"/>
<path d="M132.915 17.996C133.112 16.1662 130.24 15.0635 127.223 15.0635C124.997 15.0553 122.775 14.8513 120.583 14.4536C120.818 13.7811 120.583 13.0069 120.893 11.8573C121.614 9.34712 121.038 7.72056 118.263 5.77338C115.489 3.8262 112.851 4.42052 107.128 5.52314C101.405 6.62576 102.042 3.87312 96.6602 1.66788C91.2784 -0.537361 73.2304 1.80082 70.0468 4.42052C68.1367 5.98452 60.2535 5.703 58.3054 9.3784C56.3574 13.0538 43.4486 13.046 45.3436 15.9785C47.2386 18.911 49.2701 18.9423 49.2701 24.08C49.2701 29.2177 53.6513 27.208 58.2827 28.772C62.9141 30.336 62.0727 26.817 64.9986 26.3791C67.9244 25.9412 67.0982 25.6909 70.0241 24.0331C72.95 22.3752 72.6468 24.2208 77.6041 26.3791C80.3405 27.5677 81.2198 25.8395 81.9171 24.0331C82.478 25.1592 82.046 26.8874 83.1602 28.772C84.0547 30.2813 87.261 30.4064 90.2627 29.9059C94.0072 36.1619 95.0836 30.6879 99.2677 30.8287C103.687 31.0085 110.046 26.9734 113.116 26.3791C116.186 25.7848 116.361 25.034 119.764 27.3253C123.167 29.6166 136.561 23.7125 137.691 21.0693C138.82 18.4261 132.726 19.8572 132.915 17.996Z" fill="#F0F0F0"/>
<path d="M265.027 80.6186C282.421 80.6186 296.522 66.0714 296.522 48.1265C296.522 30.1816 282.421 15.6344 265.027 15.6344C247.633 15.6344 233.532 30.1816 233.532 48.1265C233.532 66.0714 247.633 80.6186 265.027 80.6186Z" fill="#FAFAFA"/>
<path d="M321.241 41.7219C321.241 40.3178 320.7 38.9713 319.738 37.9784C318.775 36.9856 317.47 36.4278 316.109 36.4278C315.608 36.4269 315.11 36.5033 314.631 36.6546C314.886 34.889 314.728 33.086 314.17 31.3964C313.612 29.7067 312.67 28.1794 311.422 26.9423C310.175 25.7051 308.659 24.7941 307 24.2852C305.341 23.7764 303.589 23.6846 301.889 24.0175C300.825 22.1897 299.211 20.7699 297.294 19.9737C295.377 19.1774 293.26 19.0481 291.265 19.6053C289.27 20.1625 287.506 21.3758 286.24 23.0612C284.974 24.7466 284.275 26.812 284.25 28.9441H284.091C281.815 29.0132 279.654 29.9947 278.068 31.6802C276.481 33.3658 275.594 35.6228 275.594 37.9722C275.594 40.3217 276.481 42.5787 278.068 44.2643C279.654 45.9498 281.815 46.9313 284.091 47.0004H316.223C317.561 46.9698 318.835 46.4007 319.773 45.4145C320.71 44.4284 321.237 43.1032 321.241 41.7219Z" fill="#F5F5F5"/>
<path d="M266.278 89.4865C266.278 88.0824 265.737 86.7358 264.775 85.7429C263.812 84.7501 262.507 84.1923 261.146 84.1923C260.648 84.1926 260.153 84.2664 259.676 84.4113C259.752 83.8753 259.79 83.3343 259.789 82.7926C259.786 81.1446 259.432 79.5175 258.751 78.0267C258.071 76.5359 257.08 75.218 255.85 74.1664C254.621 73.1148 253.181 72.3553 251.635 71.9419C250.089 71.5285 248.473 71.4712 246.903 71.7742C245.832 69.959 244.217 68.5525 242.303 67.7668C240.388 66.9811 238.278 66.8589 236.291 67.4185C234.304 67.9781 232.546 69.1892 231.284 70.8692C230.022 72.5491 229.324 74.6069 229.295 76.732H229.143C227.972 76.6965 226.807 76.9037 225.715 77.3414C224.623 77.7791 223.627 78.4384 222.787 79.2803C221.946 80.1222 221.278 81.1295 220.822 82.2425C220.366 83.3556 220.131 84.5518 220.131 85.7602C220.131 86.9687 220.366 88.1649 220.822 89.278C221.278 90.391 221.946 91.3983 222.787 92.2402C223.627 93.082 224.623 93.7413 225.715 94.1791C226.807 94.6168 227.972 94.824 229.143 94.7884H261.267C262.609 94.7577 263.886 94.1851 264.823 93.1937C265.76 92.2022 266.282 90.8711 266.278 89.4865Z" fill="#F5F5F5"/>
<path d="M355.373 156.41C355.373 155.715 355.24 155.026 354.983 154.384C354.725 153.742 354.347 153.158 353.87 152.667C353.394 152.175 352.828 151.785 352.205 151.519C351.583 151.253 350.915 151.116 350.242 151.116C349.743 151.114 349.247 151.191 348.771 151.343C348.996 149.751 348.887 148.127 348.45 146.583C348.013 145.039 347.259 143.609 346.24 142.392C345.22 141.175 343.959 140.198 342.541 139.528C341.123 138.858 339.582 138.511 338.023 138.51C337.351 138.513 336.682 138.575 336.021 138.698C334.95 136.883 333.335 135.476 331.421 134.69C329.507 133.905 327.397 133.782 325.409 134.342C323.422 134.902 321.665 136.113 320.403 137.793C319.141 139.473 318.442 141.53 318.413 143.656H318.261C315.942 143.656 313.717 144.606 312.076 146.299C310.436 147.991 309.514 150.287 309.514 152.68C309.514 155.073 310.436 157.369 312.076 159.061C313.717 160.753 315.942 161.704 318.261 161.704H350.386C351.722 161.667 352.992 161.093 353.924 160.104C354.855 159.115 355.376 157.789 355.373 156.41Z" fill="#F5F5F5"/>
<path d="M282.832 165.325C282.832 164.477 282.506 163.663 281.924 163.063C281.343 162.463 280.554 162.126 279.732 162.126C279.429 162.127 279.128 162.172 278.838 162.259C278.981 161.297 278.921 160.313 278.66 159.377C278.4 158.44 277.945 157.574 277.328 156.836C276.712 156.099 275.947 155.508 275.087 155.105C274.228 154.702 273.293 154.496 272.349 154.502C271.942 154.501 271.536 154.54 271.136 154.619C270.484 153.535 269.51 152.697 268.358 152.231C267.207 151.765 265.94 151.694 264.747 152.031C263.554 152.368 262.498 153.093 261.737 154.1C260.976 155.106 260.551 156.338 260.524 157.614H260.433C259.026 157.614 257.677 158.191 256.682 159.218C255.686 160.244 255.127 161.637 255.127 163.088C255.127 164.54 255.686 165.932 256.682 166.959C257.677 167.986 259.026 168.562 260.433 168.562H279.846C280.655 168.534 281.422 168.179 281.98 167.573C282.539 166.968 282.845 166.16 282.832 165.325Z" fill="#F5F5F5"/>
<path d="M202.015 28.0917C202.018 27.5923 201.908 27.0991 201.692 26.6521C201.477 26.2051 201.162 25.8169 200.773 25.519C200.385 25.2211 199.934 25.022 199.457 24.9377C198.98 24.8534 198.49 24.8864 198.028 25.034C198.164 24.0718 198.097 23.0908 197.833 22.1573C197.569 21.2239 197.114 20.36 196.498 19.6242C195.881 18.8884 195.119 18.298 194.262 17.8929C193.405 17.4878 192.474 17.2776 191.532 17.2766C191.125 17.2758 190.719 17.315 190.319 17.3939C189.67 16.3042 188.696 15.4611 187.543 14.991C186.39 14.5209 185.12 14.4492 183.924 14.7867C182.729 15.1242 181.671 15.8526 180.911 16.8628C180.15 17.8729 179.728 19.1101 179.707 20.3889H179.608C178.201 20.3889 176.851 20.9657 175.856 21.9922C174.861 23.0188 174.302 24.4112 174.302 25.8629C174.302 27.3147 174.861 28.7071 175.856 29.7337C176.851 30.7602 178.201 31.3369 179.608 31.3369H199.028C199.839 31.3064 200.605 30.9495 201.163 30.3429C201.721 29.7362 202.027 28.9281 202.015 28.0917Z" fill="#F5F5F5"/>
<path d="M189.5 291.352C270.668 291.352 336.469 287.389 336.469 282.5C336.469 277.611 270.668 273.647 189.5 273.647C108.331 273.647 42.5312 277.611 42.5312 282.5C42.5312 287.389 108.331 291.352 189.5 291.352Z" fill="#F5F5F5"/>
<path d="M81.8029 282.883H54.0298C54.0298 282.883 59.5632 274.156 61.9206 275.266C64.9526 276.705 67.2266 268.799 70.6527 270.676C71.8504 271.333 71.2667 273.444 72.0171 274.296C73.2678 275.704 74.8445 275.43 76.3529 276.204C79.3015 277.722 80.3475 279.723 81.8029 282.883Z" fill="#CFD8DC"/>
<path opacity="0.2" d="M81.8029 282.883H54.0298C54.0298 282.883 59.5632 274.156 61.9206 275.266C64.9526 276.705 67.2266 268.799 70.6527 270.676C71.8504 271.333 71.2667 273.444 72.0171 274.296C73.2678 275.704 74.8445 275.43 76.3529 276.204C79.3015 277.722 80.3475 279.723 81.8029 282.883Z" fill="black"/>
<path d="M57.0695 280.451C57.0695 280.451 58.8887 269.542 57.6304 267.939C56.3722 266.336 56.1144 273.898 56.1144 273.898C56.1144 273.898 51.9227 258.125 49.2166 258.07C46.5106 258.015 52.4306 271.747 52.4306 271.747C52.4306 271.747 40.8635 252.244 37.498 254.058C34.1324 255.872 49.626 273.163 49.626 273.163C49.626 273.163 41.1591 265.655 39.2944 267.775C37.4297 269.894 48.6936 276.377 48.6936 276.377C48.6936 276.377 43.7287 275.227 43.7287 276.932C43.7287 278.637 52.097 281.42 57.0695 280.451Z" fill="#CFD8DC"/>
<path opacity="0.2" d="M57.0695 280.451C57.0695 280.451 58.8887 269.542 57.6304 267.939C56.3722 266.336 56.1144 273.898 56.1144 273.898C56.1144 273.898 51.9227 258.125 49.2166 258.07C46.5106 258.015 52.4306 271.747 52.4306 271.747C52.4306 271.747 40.8635 252.244 37.498 254.058C34.1324 255.872 49.626 273.163 49.626 273.163C49.626 273.163 41.1591 265.655 39.2944 267.775C37.4297 269.894 48.6936 276.377 48.6936 276.377C48.6936 276.377 43.7287 275.227 43.7287 276.932C43.7287 278.637 52.097 281.42 57.0695 280.451Z" fill="white"/>
<path d="M58.737 278.895C58.737 278.895 67.4313 277.268 68.2727 275.814C69.1141 274.359 63.3912 276.314 63.3912 276.314C63.3912 276.314 74.0032 268.494 73.3134 266.304C72.6236 264.115 63.9672 272.725 63.9672 272.725C63.9672 272.725 75.3372 257.992 73.0102 255.818C70.6831 253.644 62.1101 270.879 62.1101 270.879C62.1101 270.879 65.3468 261.98 63.232 261.12C61.1172 260.26 59.442 271.043 59.442 271.043C59.442 271.043 58.9038 266.758 57.6228 267.243C56.3418 267.728 56.6071 275.204 58.737 278.895Z" fill="#CFD8DC"/>
<path opacity="0.2" d="M58.737 278.895C58.737 278.895 67.4313 277.268 68.2727 275.814C69.1141 274.359 63.3912 276.314 63.3912 276.314C63.3912 276.314 74.0032 268.494 73.3134 266.304C72.6236 264.115 63.9672 272.725 63.9672 272.725C63.9672 272.725 75.3372 257.992 73.0102 255.818C70.6831 253.644 62.1101 270.879 62.1101 270.879C62.1101 270.879 65.3468 261.98 63.232 261.12C61.1172 260.26 59.442 271.043 59.442 271.043C59.442 271.043 58.9038 266.758 57.6228 267.243C56.3418 267.728 56.6071 275.204 58.737 278.895Z" fill="white"/>
<path d="M59.3888 277.698C59.3888 277.698 67.7799 269.026 67.6359 266.75C67.4919 264.475 62.6103 271.161 62.6103 271.161C62.6103 271.161 68.5303 254.105 66.135 252.252C63.7398 250.399 60.5865 266.75 60.5865 266.75C60.5865 266.75 62.1707 241.476 58.0093 240.944C53.8479 240.412 57.1528 266.203 57.1528 266.203C57.1528 266.203 54.1208 253.839 51.1418 254.527C48.1629 255.216 54.3254 268.502 54.3254 268.502C54.3254 268.502 50.5354 264.193 49.4894 265.741C48.4433 267.29 54.2875 275.274 59.3888 277.698Z" fill="#CFD8DC"/>
<path opacity="0.4" d="M59.3888 277.698C59.3888 277.698 67.7799 269.026 67.6359 266.75C67.4919 264.475 62.6103 271.161 62.6103 271.161C62.6103 271.161 68.5303 254.105 66.135 252.252C63.7398 250.399 60.5865 266.75 60.5865 266.75C60.5865 266.75 62.1707 241.476 58.0093 240.944C53.8479 240.412 57.1528 266.203 57.1528 266.203C57.1528 266.203 54.1208 253.839 51.1418 254.527C48.1629 255.216 54.3254 268.502 54.3254 268.502C54.3254 268.502 50.5354 264.193 49.4894 265.741C48.4433 267.29 54.2875 275.274 59.3888 277.698Z" fill="white"/>
<path d="M69.5691 282.883H47.4355C47.4355 282.883 51.8471 275.931 53.7194 276.815C56.1677 277.964 57.9793 271.661 60.6854 273.155C61.6405 273.679 61.1705 275.368 61.7693 276.04C62.7623 277.166 64.0433 276.947 65.2258 277.565C67.568 278.77 68.4094 280.365 69.5691 282.883Z" fill="#CFD8DC"/>
<path d="M278.649 108.575C278.649 108.575 275.617 112.219 274.556 111.703C273.494 111.187 272.994 110.835 271.524 111.664C270.053 112.493 267.969 112.946 268.075 111.507C268.181 110.069 270.349 108.317 270.349 107.332C270.349 106.346 270.591 104.204 271.66 103.773C272.729 103.343 276.299 101.506 277.11 102.209C277.391 102.532 277.748 102.773 278.147 102.911C278.546 103.048 278.972 103.076 279.384 102.991C280.483 102.859 281.658 103.148 281.378 104.258C281.097 105.369 281.453 105.768 281.309 106.878C281.165 107.988 279.627 108.763 278.649 108.575Z" fill="#CFD8DC"/>
<path opacity="0.6" d="M278.649 108.575C278.649 108.575 275.617 112.219 274.556 111.703C273.494 111.187 272.994 110.835 271.524 111.664C270.053 112.493 267.969 112.946 268.075 111.507C268.181 110.069 270.349 108.317 270.349 107.332C270.349 106.346 270.591 104.204 271.66 103.773C272.729 103.343 276.299 101.506 277.11 102.209C277.391 102.532 277.748 102.773 278.147 102.911C278.546 103.048 278.972 103.076 279.384 102.991C280.483 102.859 281.658 103.148 281.378 104.258C281.097 105.369 281.453 105.768 281.309 106.878C281.165 107.988 279.627 108.763 278.649 108.575Z" fill="white"/>
<path d="M287.586 101.381C287.706 101.273 287.818 101.155 287.919 101.029C288.624 100.153 288.806 98.7609 289.814 98.2917C290.343 98.111 290.909 98.084 291.451 98.2135C294.483 98.667 300.077 99.1753 300.282 103.32C300.441 106.534 297.008 108.747 296.234 111.672C295.529 114.33 295.12 117.529 292.77 118.835C291.254 119.672 289.412 119.398 287.783 118.835C286.153 118.272 284.607 117.474 282.916 117.271C280.407 116.95 276.155 119.03 273.926 117.537C270.546 115.277 274.525 108.935 276.041 106.683C277.384 104.584 279.416 103.056 281.764 102.382C283.583 101.928 286.054 102.749 287.586 101.381Z" fill="#CFD8DC"/>
<path opacity="0.5" d="M287.586 101.381C287.706 101.273 287.818 101.155 287.919 101.029C288.624 100.153 288.806 98.7609 289.814 98.2917C290.343 98.111 290.909 98.084 291.451 98.2135C294.483 98.667 300.077 99.1753 300.282 103.32C300.441 106.534 297.008 108.747 296.234 111.672C295.529 114.33 295.12 117.529 292.77 118.835C291.254 119.672 289.412 119.398 287.783 118.835C286.153 118.272 284.607 117.474 282.916 117.271C280.407 116.95 276.155 119.03 273.926 117.537C270.546 115.277 274.525 108.935 276.041 106.683C277.384 104.584 279.416 103.056 281.764 102.382C283.583 101.928 286.054 102.749 287.586 101.381Z" fill="white"/>
<path d="M322.408 132.207C322.408 132.207 327.282 131.472 327.494 132.989C327.707 134.506 327.684 135.39 329.245 135.969C330.807 136.547 332.444 138.127 331.156 139.48C329.867 140.833 327.123 140.512 326.251 141.45C325.38 142.389 323.477 144.352 322.461 143.796C321.446 143.241 317.792 141.575 317.913 140.074C318.035 138.573 317.913 138.025 317.155 137.095C316.397 136.164 315.943 134.749 317.049 133.873C318.156 132.997 318.285 132.309 319.323 131.3C320.362 130.291 321.991 131.073 322.408 132.207Z" fill="#CFD8DC"/>
<path opacity="0.6" d="M322.408 132.207C322.408 132.207 327.282 131.472 327.494 132.989C327.707 134.506 327.684 135.39 329.245 135.969C330.807 136.547 332.444 138.127 331.156 139.48C329.867 140.833 327.123 140.512 326.251 141.45C325.38 142.389 323.477 144.352 322.461 143.796C321.446 143.241 317.792 141.575 317.913 140.074C318.035 138.573 317.913 138.025 317.155 137.095C316.397 136.164 315.943 134.749 317.049 133.873C318.156 132.997 318.285 132.309 319.323 131.3C320.362 130.291 321.991 131.073 322.408 132.207Z" fill="white"/>
<path d="M308.332 118.154C308.213 118.147 308.094 118.147 307.976 118.154C307.165 118.24 306.369 118.874 305.603 118.585C305.233 118.398 304.92 118.108 304.701 117.748C303.314 115.871 300.638 112.626 302.617 110.334C304.133 108.552 307.074 109.232 308.954 108.106C310.659 107.081 312.486 105.619 314.373 106.19C314.962 106.429 315.497 106.788 315.949 107.245C316.401 107.701 316.759 108.247 317.004 108.849C317.49 110.05 318.084 111.202 318.777 112.289C319.929 113.799 323.219 114.987 323.636 116.981C324.28 119.984 318.99 121.196 317.064 121.564C315.306 121.958 313.469 121.681 311.895 120.782C310.705 120.008 309.818 118.256 308.332 118.154Z" fill="#CFD8DC"/>
<path opacity="0.6" d="M308.332 118.154C308.213 118.147 308.094 118.147 307.976 118.154C307.165 118.24 306.369 118.874 305.603 118.585C305.233 118.398 304.92 118.108 304.701 117.748C303.314 115.871 300.638 112.626 302.617 110.334C304.133 108.552 307.074 109.232 308.954 108.106C310.659 107.081 312.486 105.619 314.373 106.19C314.962 106.429 315.497 106.788 315.949 107.245C316.401 107.701 316.759 108.247 317.004 108.849C317.49 110.05 318.084 111.202 318.777 112.289C319.929 113.799 323.219 114.987 323.636 116.981C324.28 119.984 318.99 121.196 317.064 121.564C315.306 121.958 313.469 121.681 311.895 120.782C310.705 120.008 309.818 118.256 308.332 118.154Z" fill="white"/>
<path d="M296.378 119.312C296.47 119.237 296.556 119.156 296.636 119.069C297.205 118.46 297.394 117.443 298.152 117.161C298.548 117.045 298.969 117.045 299.365 117.161C301.601 117.67 305.672 118.366 305.603 121.431C305.543 123.777 302.897 125.247 302.162 127.359C301.503 129.275 301.025 131.605 299.229 132.434C298.039 132.842 296.741 132.746 295.62 132.168C294.501 131.57 293.328 131.086 292.119 130.721C290.284 130.338 287.04 131.628 285.478 130.401C283.106 128.54 286.38 124.09 287.624 122.526C288.723 121.052 290.304 120.04 292.073 119.679C293.415 119.476 295.188 120.227 296.378 119.312Z" fill="#CFD8DC"/>
<path opacity="0.5" d="M296.378 119.312C296.47 119.237 296.556 119.156 296.636 119.069C297.205 118.46 297.394 117.443 298.152 117.161C298.548 117.045 298.969 117.045 299.365 117.161C301.601 117.67 305.672 118.366 305.603 121.431C305.543 123.777 302.897 125.247 302.162 127.359C301.503 129.275 301.025 131.605 299.229 132.434C298.039 132.842 296.741 132.746 295.62 132.168C294.501 131.57 293.328 131.086 292.119 130.721C290.284 130.338 287.04 131.628 285.478 130.401C283.106 128.54 286.38 124.09 287.624 122.526C288.723 121.052 290.304 120.04 292.073 119.679C293.415 119.476 295.188 120.227 296.378 119.312Z" fill="white"/>
<path d="M283.879 134.764C283.942 134.716 284.001 134.661 284.053 134.6C284.44 134.193 284.576 133.505 285.092 133.31C285.359 133.232 285.643 133.232 285.91 133.31C287.426 133.646 290.163 134.092 290.117 136.18C290.079 137.791 288.29 138.752 287.798 140.176C287.35 141.474 287.04 143.046 285.819 143.601C285.416 143.744 284.988 143.802 284.562 143.771C284.136 143.74 283.721 143.621 283.341 143.421C282.585 143.017 281.793 142.69 280.976 142.443C279.74 142.185 277.557 143.053 276.503 142.224C274.904 140.973 277.11 137.97 277.951 136.915C278.69 135.922 279.755 135.24 280.945 134.999C281.87 134.881 283.068 135.382 283.879 134.764Z" fill="#CFD8DC"/>
<path opacity="0.5" d="M283.879 134.764C283.942 134.716 284.001 134.661 284.053 134.6C284.44 134.193 284.576 133.505 285.092 133.31C285.359 133.232 285.643 133.232 285.91 133.31C287.426 133.646 290.163 134.092 290.117 136.18C290.079 137.791 288.29 138.752 287.798 140.176C287.35 141.474 287.04 143.046 285.819 143.601C285.416 143.744 284.988 143.802 284.562 143.771C284.136 143.74 283.721 143.621 283.341 143.421C282.585 143.017 281.793 142.69 280.976 142.443C279.74 142.185 277.557 143.053 276.503 142.224C274.904 140.973 277.11 137.97 277.951 136.915C278.69 135.922 279.755 135.24 280.945 134.999C281.87 134.881 283.068 135.382 283.879 134.764Z" fill="white"/>
<path d="M305.626 249.288C305.626 249.288 311.318 249.421 314.623 231.748C317.928 214.075 318.815 208.288 321.817 209.766C324.818 211.244 316.677 235.634 316.677 235.634C316.677 235.634 320.02 236.886 324.818 225.64C329.616 214.395 332.914 206.169 336.514 210.43C340.115 214.692 328.714 232.952 321.066 240.373C321.066 240.373 322.415 243.157 328.411 238.207C334.407 233.257 338.311 228.69 341.297 231.748C344.284 234.805 344.329 237.902 339.501 237.902C334.672 237.902 325.97 243.697 324.492 249.288C324.492 249.288 331.102 247.724 336.507 249.288C341.911 250.852 345.201 256.389 339.501 258.437C333.801 260.486 328.373 253.91 324.492 258.437C324.492 258.437 335.605 259.845 336.507 267.9C337.409 275.954 323.007 278.66 323.007 278.66L275.912 265.757L283.735 243.994L305.626 249.288Z" fill="#CFD8DC"/>
<path d="M290.61 249.804C290.61 249.804 298.228 212.174 301.275 206.419C301.275 206.419 309.082 195.424 310.136 189.661C311.19 183.897 303.958 147.706 303.958 147.706L283.492 137.97C283.492 137.97 277.906 126.24 273.835 123.496L275.874 121.337C275.874 121.337 284 128.993 285.782 136.649L303.974 142.795L302.548 134.663L295.014 126.115L292.035 109.177L295.014 108.864L297.811 122.432L303.958 127.711L308.628 116.262L308.377 107.793L310.121 106.573L310.78 114.964L319.573 100.528L321.415 102.155L310.803 119.093L310.159 130.635L312.478 138.197L322.643 132.723L327.456 123.253L329.996 122.471L325.448 134.631L315.791 145.939C315.791 145.939 320.619 179.354 324.174 188.167C324.174 188.167 313.759 206.309 315.025 214.896C315.92 220.624 317.109 226.299 318.588 231.896L313.759 273.859L285.766 271.552L290.61 249.804Z" fill="#CFD8DC"/>
<path opacity="0.2" d="M290.61 249.804C290.61 249.804 298.228 212.174 301.275 206.419C301.275 206.419 309.082 195.424 310.136 189.661C311.19 183.897 303.958 147.706 303.958 147.706L283.492 137.97C283.492 137.97 277.906 126.24 273.835 123.496L275.874 121.337C275.874 121.337 284 128.993 285.782 136.649L303.974 142.795L302.548 134.663L295.014 126.115L292.035 109.177L295.014 108.864L297.811 122.432L303.958 127.711L308.628 116.262L308.377 107.793L310.121 106.573L310.78 114.964L319.573 100.528L321.415 102.155L310.803 119.093L310.159 130.635L312.478 138.197L322.643 132.723L327.456 123.253L329.996 122.471L325.448 134.631L315.791 145.939C315.791 145.939 320.619 179.354 324.174 188.167C324.174 188.167 313.759 206.309 315.025 214.896C315.92 220.624 317.109 226.299 318.588 231.896L313.759 273.859L285.766 271.552L290.61 249.804Z" fill="white"/>
<path d="M215.962 270.989C213.694 272.026 211.744 273.682 210.32 275.777C208.896 277.873 208.053 280.33 207.882 282.883H242.56L245.987 264.787L230.152 259.587C230.152 259.587 229.167 235.814 225.71 232.796C222.254 229.777 221.655 237.488 224.353 249.39C224.353 249.39 217.455 241.452 212.657 243.501C207.859 245.55 221.412 261.354 221.412 261.354C221.412 261.354 212.968 258.672 208.769 262.473C204.569 266.273 215.962 270.989 215.962 270.989Z" fill="#CFD8DC"/>
<path d="M218.509 278.856C218.509 278.856 202.705 277.55 197.406 282.883H238.05V276.314C238.05 276.314 230.357 261.699 226.46 261.354C222.564 261.01 225.702 273.64 225.702 273.64C225.702 273.64 217.304 263.341 213.097 268.424C208.89 273.507 218.509 278.856 218.509 278.856Z" fill="#CFD8DC"/>
<path opacity="0.2" d="M218.509 278.856C218.509 278.856 202.705 277.55 197.406 282.883H238.05V276.314C238.05 276.314 230.357 261.699 226.46 261.354C222.564 261.01 225.702 273.64 225.702 273.64C225.702 273.64 217.304 263.341 213.097 268.424C208.89 273.507 218.509 278.856 218.509 278.856Z" fill="white"/>
<path d="M298.827 266.539C298.827 266.539 305.224 238.301 304.027 233.312C302.829 228.323 276.64 198.81 271.941 194.994C267.241 191.178 254.848 193.602 235.253 205.801C215.659 218 232.055 280.028 233.654 280.983C235.253 281.937 298.827 266.539 298.827 266.539Z" fill="#CFD8DC"/>
<path opacity="0.6" d="M298.827 266.539C298.827 266.539 235.253 281.944 233.639 280.998C232.365 280.216 221.723 240.78 227.317 218.563C228.742 212.863 231.243 208.303 235.238 205.817C254.832 193.618 267.226 191.201 271.925 195.009C276.625 198.818 302.814 228.323 304.012 233.327C305.209 238.332 298.827 266.539 298.827 266.539Z" fill="white"/>
<path opacity="0.1" d="M298.827 266.539C298.827 266.539 235.253 281.944 233.639 280.998C232.365 280.216 221.723 240.78 227.317 218.563C228.924 232.428 231.304 251.673 232.441 254.129C234.238 258.039 252.566 254.129 252.566 254.129L266.923 241.007L269.022 250.852L285.516 248.506L298.827 266.539Z" fill="black"/>
<path d="M331.368 282.883L326.418 274.375L316.677 267.845C316.677 267.845 307.627 255.403 304.026 252.705C300.426 250.008 294.43 253.699 294.43 253.699C294.43 253.699 285.63 257.734 282.431 260.87C279.232 264.005 267.271 262.543 261.207 264.537C255.143 266.531 243.212 279.395 238.012 279.067C235.632 278.926 233.002 280.803 230.849 282.883H331.368Z" fill="#263238"/>
<path d="M279.839 127.765C279.839 127.765 273.017 131.503 271.94 129.329C270.864 127.155 270.424 125.912 267.839 125.912C265.255 125.912 262.041 124.465 263.246 121.783C264.451 119.101 268.643 118.076 269.439 116.215C270.235 114.354 272.039 110.444 273.835 110.741C275.632 111.038 281.832 111.461 282.431 113.736C283.03 116.012 283.432 116.763 285.031 117.724C286.63 118.686 288.063 120.54 286.835 122.416C285.607 124.293 285.834 125.435 284.834 127.437C283.833 129.439 281.036 129.212 279.839 127.765Z" fill="#CFD8DC"/>
<path opacity="0.6" d="M279.839 127.765C279.839 127.765 273.017 131.503 271.94 129.329C270.864 127.155 270.424 125.912 267.839 125.912C265.255 125.912 262.041 124.465 263.246 121.783C264.451 119.101 268.643 118.076 269.439 116.215C270.235 114.354 272.039 110.444 273.835 110.741C275.632 111.038 281.832 111.461 282.431 113.736C283.03 116.012 283.432 116.763 285.031 117.724C286.63 118.686 288.063 120.54 286.835 122.416C285.607 124.293 285.834 125.435 284.834 127.437C283.833 129.439 281.036 129.212 279.839 127.765Z" fill="white"/>
<path d="M323.409 96.1959C323.409 96.1959 328.427 96.4149 328.715 97.7208C329.003 99.0268 329.003 99.7149 330.648 100.458C332.292 101.201 334.043 102.804 332.762 103.656C331.481 104.509 328.631 103.82 327.767 104.438C326.903 105.056 325 106.346 323.924 105.697C322.848 105.048 318.997 103.093 319.058 101.881C319.139 101.41 319.101 100.926 318.947 100.475C318.793 100.024 318.528 99.6223 318.178 99.3083C317.352 98.4168 316.829 97.1656 317.943 96.6573C319.058 96.149 319.164 95.5547 320.18 94.9291C321.195 94.3035 322.908 95.1715 323.409 96.1959Z" fill="#CFD8DC"/>
<path opacity="0.6" d="M323.409 96.1959C323.409 96.1959 328.427 96.4149 328.715 97.7208C329.003 99.0268 329.003 99.7149 330.648 100.458C332.292 101.201 334.043 102.804 332.762 103.656C331.481 104.509 328.631 103.82 327.767 104.438C326.903 105.056 325 106.346 323.924 105.697C322.848 105.048 318.997 103.093 319.058 101.881C319.139 101.41 319.101 100.926 318.947 100.475C318.793 100.024 318.528 99.6223 318.178 99.3083C317.352 98.4168 316.829 97.1656 317.943 96.6573C319.058 96.149 319.164 95.5547 320.18 94.9291C321.195 94.3035 322.908 95.1715 323.409 96.1959Z" fill="white"/>
<path d="M325.683 127.007C325.564 126.999 325.445 126.999 325.327 127.007C324.516 127.093 323.72 127.734 322.954 127.437C322.585 127.247 322.274 126.958 322.052 126.6C320.665 124.723 317.997 121.478 319.968 119.187C321.484 117.412 324.425 118.084 326.304 116.958C328.01 115.941 329.837 114.471 331.732 115.042C332.32 115.282 332.856 115.64 333.307 116.097C333.759 116.554 334.118 117.099 334.362 117.701C334.841 118.904 335.433 120.057 336.128 121.142C337.288 122.659 340.57 123.84 340.994 125.834C341.631 128.837 336.348 130.049 334.423 130.416C332.662 130.814 330.821 130.536 329.245 129.634C328.063 128.86 327.176 127.108 325.683 127.007Z" fill="#CFD8DC"/>
<path opacity="0.5" d="M325.683 127.007C325.564 126.999 325.445 126.999 325.327 127.007C324.516 127.093 323.72 127.734 322.954 127.437C322.585 127.247 322.274 126.958 322.052 126.6C320.665 124.723 317.997 121.478 319.968 119.187C321.484 117.412 324.425 118.084 326.304 116.958C328.01 115.941 329.837 114.471 331.732 115.042C332.32 115.282 332.856 115.64 333.307 116.097C333.759 116.554 334.118 117.099 334.362 117.701C334.841 118.904 335.433 120.057 336.128 121.142C337.288 122.659 340.57 123.84 340.994 125.834C341.631 128.837 336.348 130.049 334.423 130.416C332.662 130.814 330.821 130.536 329.245 129.634C328.063 128.86 327.176 127.108 325.683 127.007Z" fill="white"/>
<path d="M314.821 96.0318C319.93 98.6045 320.816 95.6955 322.014 97.8069C323.212 99.9183 329.215 98.8939 328.214 101.779C327.214 104.665 324.015 107.777 326.016 109.216C328.017 110.655 325.925 110.444 321.574 110.78C317.223 111.117 319.225 115.136 314.821 112.688C310.417 110.241 307.241 113.377 305.224 113.47C303.208 113.564 298.827 115.425 296.826 110.78C294.825 106.135 297.227 104.485 297.629 100.567C298.031 96.6495 292.232 96.0318 298.827 92.7474C305.421 89.463 310.758 90.2762 311.986 92.7474C313.214 95.2185 312.819 95.023 314.821 96.0318Z" fill="#CFD8DC"/>
<path opacity="0.5" d="M314.821 96.0318C319.93 98.6045 320.816 95.6955 322.014 97.8069C323.212 99.9183 329.215 98.8939 328.214 101.779C327.214 104.665 324.015 107.777 326.016 109.216C328.017 110.655 325.925 110.444 321.574 110.78C317.223 111.117 319.225 115.136 314.821 112.688C310.417 110.241 307.241 113.377 305.224 113.47C303.208 113.564 298.827 115.425 296.826 110.78C294.825 106.135 297.227 104.485 297.629 100.567C298.031 96.6495 292.232 96.0318 298.827 92.7474C305.421 89.463 310.758 90.2762 311.986 92.7474C313.214 95.2185 312.819 95.023 314.821 96.0318Z" fill="white"/>
<path d="M287.237 107.144C289.556 105.76 290.193 102.256 291.929 102.827C293.665 103.398 297.121 105.111 298.789 104.172C300.456 103.234 302.821 103.281 302.98 105.048C303.14 106.816 300.767 109.74 301.714 111.625C302.662 113.509 302.01 115.449 298.789 115.941C295.567 116.434 293.824 117.732 291.3 118.71C288.775 119.687 289.245 116.364 286.562 115.316C283.879 114.268 279.854 111.515 287.237 107.144Z" fill="#CFD8DC"/>
<path opacity="0.6" d="M287.237 107.144C289.556 105.76 290.193 102.256 291.929 102.827C293.665 103.398 297.121 105.111 298.789 104.172C300.456 103.234 302.821 103.281 302.98 105.048C303.14 106.816 300.767 109.74 301.714 111.625C302.662 113.509 302.01 115.449 298.789 115.941C295.567 116.434 293.824 117.732 291.3 118.71C288.775 119.687 289.245 116.364 286.562 115.316C283.879 114.268 279.854 111.515 287.237 107.144Z" fill="white"/>
<path d="M328.214 119.922C325.652 119.14 322.734 121.017 321.953 119.32C321.173 117.623 320.036 113.846 318.231 113.228C316.427 112.61 314.851 110.796 315.995 109.467C317.14 108.137 320.839 107.903 321.521 105.932C322.203 103.961 324.023 103.109 326.569 105.205C329.116 107.3 331.231 107.731 333.642 108.966C336.052 110.202 333.354 112.141 334.468 114.855C335.582 117.568 336.348 122.487 328.214 119.922Z" fill="#CFD8DC"/>
<path opacity="0.6" d="M328.214 119.922C325.652 119.14 322.734 121.017 321.953 119.32C321.173 117.623 320.036 113.846 318.231 113.228C316.427 112.61 314.851 110.796 315.995 109.467C317.14 108.137 320.839 107.903 321.521 105.932C322.203 103.961 324.023 103.109 326.569 105.205C329.116 107.3 331.231 107.731 333.642 108.966C336.052 110.202 333.354 112.141 334.468 114.855C335.582 117.568 336.348 122.487 328.214 119.922Z" fill="white"/>
<path d="M298.698 98.542C298.698 98.542 294.908 101.318 293.983 100.56C293.059 99.801 292.672 99.324 291.065 99.7775C289.458 100.231 287.313 100.129 287.753 98.7609C288.192 97.3924 290.678 96.2272 290.966 95.281C291.254 94.3348 291.929 92.3251 293.074 92.153C294.218 91.981 298.107 91.113 298.728 91.9966C298.931 92.381 299.228 92.7034 299.59 92.9313C299.952 93.1592 300.366 93.2846 300.79 93.2947C301.882 93.4433 302.958 94.0142 302.427 95.023C301.897 96.0317 302.147 96.5088 301.753 97.5488C301.359 98.5889 299.6 98.9251 298.698 98.542Z" fill="#CFD8DC"/>
<path opacity="0.6" d="M298.698 98.542C298.698 98.542 294.908 101.318 293.983 100.56C293.059 99.801 292.672 99.324 291.065 99.7775C289.458 100.231 287.313 100.129 287.753 98.7609C288.192 97.3924 290.678 96.2272 290.966 95.281C291.254 94.3348 291.929 92.3251 293.074 92.153C294.218 91.981 298.107 91.113 298.728 91.9966C298.931 92.381 299.228 92.7034 299.59 92.9313C299.952 93.1592 300.366 93.2846 300.79 93.2947C301.882 93.4433 302.958 94.0142 302.427 95.023C301.897 96.0317 302.147 96.5088 301.753 97.5488C301.359 98.5889 299.6 98.9251 298.698 98.542Z" fill="white"/>
<path d="M91.9529 92.4111C91.9529 92.4111 92.8094 84.3174 93.6357 83.9577C94.4619 83.5979 98.6536 84.8335 100.154 85.8423C101.012 86.3723 101.653 87.2062 101.959 88.1883V90.722L104.278 93.8109L101.39 97.3455L96.7814 94.5147C96.7814 94.5147 91.8619 93.2009 91.9529 92.4111Z" fill="#CFD8DC"/>
<path d="M93.0518 96.8919L106.423 102.601L99.2977 97.3376L104.907 91.4883C104.907 91.4883 120.688 98.5263 120.37 106.346C120.052 114.166 108.955 114.463 93.6657 112.602L93.0518 96.8919Z" fill="#CFD8DC"/>
<path opacity="0.1" d="M120.34 106.362C120.074 112.923 112.191 114.182 100.632 113.33C98.4335 113.165 96.0837 112.923 93.6506 112.626L93.4156 106.37L93.0669 96.9467L106.438 102.655L99.2977 97.3376L104.907 91.4883C104.907 91.4883 120.658 98.5419 120.34 106.362Z" fill="black"/>
<path opacity="0.2" d="M100.617 113.306C98.4184 113.142 96.0685 112.899 93.6354 112.602L93.4004 106.346C96.5259 107.716 99.0817 110.181 100.617 113.306Z" fill="black"/>
<path d="M66.8706 75.7389C66.7341 75.7936 60.0486 75.606 58.5326 81.5883C57.0166 87.5706 61.9057 90.7768 61.1932 96.6809C60.4806 102.585 58.0854 107.785 59.283 110.084C60.4806 112.383 67.621 113.65 69.281 106.065C70.941 98.4795 63.9295 86.03 66.8554 82.3312C69.7813 78.6323 66.8706 75.7389 66.8706 75.7389Z" fill="#263238"/>
<path d="M89.7544 112.391C89.7544 112.391 88.9055 93.9047 71.7292 94.1002C54.5529 94.2957 51.1495 105.251 55.3336 113.697C56.4424 120.424 57.1613 127.214 57.4864 134.029C57.7744 143.413 53.9238 151.421 68.7199 152.453C83.5161 153.485 91.5509 149.724 91.9375 147.761C92.3241 145.798 90.4897 120.008 89.7544 112.391Z" fill="#263238"/>
<path opacity="0.2" d="M89.7544 112.391C89.7544 112.391 88.9055 93.9047 71.7292 94.1002C54.5529 94.2957 51.1495 105.251 55.3336 113.697C56.4424 120.424 57.1613 127.214 57.4864 134.029C57.7744 143.413 53.9238 151.421 68.7199 152.453C83.5161 153.485 91.5509 149.724 91.9375 147.761C92.3241 145.798 90.4897 120.008 89.7544 112.391Z" fill="white"/>
<path d="M119.574 274.132L115.428 275.642C115.428 275.642 102.906 245.926 97.8197 220.245C93.8033 212.262 90.2595 204.036 87.2077 195.612C86.7983 194.486 86.4042 193.344 86.0176 192.194C84.9412 189.004 83.9407 185.719 83.1069 182.466C81.4999 176.21 80.4766 170.103 80.5827 164.762L96.8267 168.39L99.2599 179.424L100.548 185.297L101.867 191.279L106.044 210.368L119.574 274.132Z" fill="#CFD8DC"/>
<path opacity="0.2" d="M100.533 185.297L86.0025 192.194C84.9262 189.004 83.9256 185.719 83.0918 182.466L99.2448 179.424L100.533 185.297Z" fill="black"/>
<path d="M94.6741 157.411L101.39 181.434L82.0534 187.565L78.1118 164.762C78.1118 164.762 85.6539 153.571 94.6741 157.411Z" fill="#CFD8DC"/>
<path opacity="0.6" d="M101.39 181.434L87.109 185.962L82.2275 187.526L82.0532 187.58L79.0212 169.978L78.1191 164.777C78.1191 164.777 85.6537 153.556 94.6814 157.403L100.973 179.901L101.39 181.434Z" fill="white"/>
<path d="M102.845 182.74L87.4805 188.433L83.9406 189.747L82.2275 187.541L82.0684 187.33L87.0181 185.391L100.965 179.917L102.087 179.479L102.845 182.74Z" fill="#CFD8DC"/>
<path opacity="0.2" d="M86.0859 185.672L86.2602 188.136L82.6218 189.144L81.1058 186.798L80.9315 186.838L79.2866 169.039C79.8021 167.475 80.1204 166.576 80.1204 166.576L89.7394 159.671C89.7394 159.671 89.4438 164.23 84.8958 169.704L86.0101 185.086L86.0859 185.672Z" fill="black"/>
<path d="M113.7 274.148C113.7 273.585 120.522 274.031 120.522 274.031C120.522 274.031 124.699 278.41 128.754 279.395C132.809 280.38 130.543 282.883 126.01 282.883H114.746C111.532 282.883 113.541 280.06 113.7 274.148Z" fill="#263238"/>
<path d="M121.227 274.93L121.174 274.891C121.17 274.873 121.17 274.854 121.174 274.836C121.171 274.818 121.171 274.799 121.174 274.781C121.17 274.755 121.17 274.729 121.174 274.703C121.174 274.617 121.773 272.998 122.69 272.607C122.828 272.542 122.978 272.507 123.13 272.507C123.281 272.507 123.431 272.542 123.569 272.607C123.88 272.756 124.024 272.959 124.016 273.194C124.016 273.561 123.509 273.937 122.963 274.234C123.474 274.146 123.999 274.205 124.479 274.406C124.567 274.456 124.645 274.525 124.707 274.607C124.77 274.689 124.816 274.782 124.843 274.883C124.901 275.014 124.916 275.162 124.886 275.303C124.856 275.444 124.782 275.571 124.676 275.665C124.503 275.794 124.29 275.855 124.077 275.837C123.082 275.713 122.117 275.405 121.227 274.93ZM121.849 274.813C122.849 275.251 124.123 275.642 124.411 275.368C124.411 275.368 124.524 275.274 124.456 275C124.445 274.947 124.422 274.896 124.389 274.853C124.356 274.81 124.314 274.775 124.267 274.75C124.014 274.635 123.739 274.584 123.463 274.602C122.92 274.618 122.379 274.689 121.849 274.813ZM122.796 272.928C122.263 273.29 121.856 273.819 121.636 274.437C122.637 274.038 123.607 273.499 123.63 273.186C123.63 273.084 123.478 272.991 123.387 272.951C123.291 272.901 123.185 272.874 123.077 272.873C122.98 272.872 122.885 272.89 122.796 272.928Z" fill="#CFD8DC"/>
<path d="M82.4398 277.213L78.0813 277.8C78.0813 277.8 71.8278 246.043 72.0173 219.838C69.6952 211.166 67.8828 202.358 66.59 193.461C65.074 182.732 64.316 170.783 66.3323 161.868L81.4923 168.906L81.8031 192.366L82.0608 211.916L82.4398 277.213Z" fill="#CFD8DC"/>
<path opacity="0.2" d="M81.8031 192.382L66.59 193.477C65.074 182.748 64.316 170.799 66.3323 161.884L81.4923 168.922L81.8031 192.382Z" fill="black"/>
<path d="M76.558 274.148C76.558 273.585 83.38 274.031 83.38 274.031C83.38 274.031 87.5566 278.41 91.6119 279.395C95.6672 280.38 93.4008 282.883 88.8679 282.883H77.604C74.3901 282.883 76.3988 280.06 76.558 274.148Z" fill="#263238"/>
<path d="M84.0849 274.93L84.0319 274.891C84.028 274.873 84.028 274.854 84.0319 274.836C84.0286 274.818 84.0286 274.799 84.0319 274.781C84.0278 274.755 84.0278 274.729 84.0319 274.703C84.0319 274.617 84.6307 272.998 85.5479 272.607C85.6857 272.542 85.8357 272.507 85.9875 272.507C86.1394 272.507 86.2894 272.542 86.4272 272.607C86.7379 272.756 86.882 272.959 86.8744 273.194C86.8744 273.561 86.3665 273.937 85.8208 274.234C86.3318 274.146 86.8565 274.205 87.3368 274.406C87.4252 274.456 87.5029 274.525 87.5654 274.607C87.6279 274.689 87.6738 274.782 87.7006 274.883C87.759 275.014 87.7743 275.162 87.7442 275.303C87.7141 275.444 87.6402 275.571 87.5338 275.665C87.3606 275.794 87.1482 275.855 86.935 275.837C85.9401 275.713 84.9749 275.405 84.0849 274.93ZM84.7065 274.813C85.7071 275.251 86.9805 275.642 87.2685 275.368C87.2685 275.368 87.3822 275.274 87.314 275C87.3026 274.947 87.2796 274.896 87.2468 274.853C87.214 274.81 87.1722 274.775 87.1245 274.75C86.872 274.635 86.5965 274.584 86.321 274.602C85.7775 274.618 85.2369 274.689 84.7065 274.813ZM85.654 272.928C85.1207 273.29 84.7141 273.819 84.4943 274.437C85.4948 274.038 86.4651 273.499 86.4878 273.186C86.4878 273.084 86.3362 272.991 86.2452 272.951C86.149 272.901 86.0426 272.874 85.9345 272.873C85.8384 272.872 85.743 272.89 85.654 272.928Z" fill="#CFD8DC"/>
<path d="M83.4558 188.785L82.8873 161.735L95.887 157.825C95.887 157.825 94.8637 145.415 93.3477 139.292C93.3477 139.292 72.2374 133.873 69.0235 141.255C69.0235 141.255 69.0235 141.372 68.978 141.411L68.925 141.482C68.925 141.482 55.948 151.429 64.6726 188.785H83.4558Z" fill="#CFD8DC"/>
<path opacity="0.6" d="M83.4558 188.785L82.8873 161.735L95.887 157.825C95.887 157.825 94.8637 145.415 93.3477 139.292C93.3477 139.292 72.2374 133.873 69.0235 141.255C69.0235 141.255 69.0235 141.372 68.978 141.411L68.925 141.482C68.925 141.482 55.948 151.429 64.6726 188.785H83.4558Z" fill="white"/>
<path d="M68.7959 137.509V141.2L93.0519 139.268V134.905L68.7959 137.509Z" fill="#263238"/>
<path d="M77.0174 135.951L75.8062 136.015L76.1223 142.387L77.3335 142.323L77.0174 135.951Z" fill="#CFD8DC"/>
<path d="M87.6094 135.797L82.2642 136.291L82.6274 140.473L87.9726 139.979L87.6094 135.797Z" fill="white"/>
<path d="M91.9314 134.269L90.7202 134.332L91.0353 140.705L92.2465 140.641L91.9314 134.269Z" fill="#CFD8DC"/>
<path opacity="0.6" d="M77.0174 135.951L75.8062 136.015L76.1223 142.387L77.3335 142.323L77.0174 135.951Z" fill="white"/>
<path opacity="0.6" d="M91.9314 134.269L90.7202 134.332L91.0353 140.705L92.2465 140.641L91.9314 134.269Z" fill="white"/>
<path d="M93.3475 135.343L68.902 137.525C68.3259 128.141 67.7499 122.104 62.3681 105.4C61.8981 103.935 61.3928 102.371 60.8521 100.708C64.1675 99.6199 67.5544 98.7784 70.9865 98.1901C74.6134 97.5264 78.2811 97.1266 81.9624 96.9937C86.7226 96.9937 92.1802 97.5098 92.1802 97.5098C92.1802 97.5098 92.9382 97.6975 93.4461 102.898C93.8933 107.824 94.3253 117.584 93.3475 135.343Z" fill="#263238"/>
<path opacity="0.2" d="M93.3475 135.343L68.9096 137.525C68.6589 131.09 67.7442 124.702 66.1808 118.467C65.5517 115.949 64.7633 113.118 63.7628 109.865C63.3383 108.473 62.8759 107.003 62.3681 105.431C61.8602 103.86 61.3978 102.413 60.8521 100.739C64.1697 99.6478 67.5591 98.8037 70.9941 98.2136C74.6209 97.549 78.2886 97.1492 81.9699 97.0171C86.7226 96.978 92.1878 97.5332 92.1878 97.5332C92.1878 97.5332 92.9458 97.7287 93.4536 102.921C93.8933 107.817 94.3329 117.584 93.3475 135.343Z" fill="white"/>
<path d="M63.1108 187.674L84.5243 187.479L84.1453 190.802L64.0583 190.607L63.1108 187.674Z" fill="#CFD8DC"/>
<path d="M69.2964 166.443L56.7515 163.784L65.0895 138.698L62.2773 123.464L60.64 114.331L58.2902 101.615C58.2902 101.615 64.5285 98.2292 68.834 98.0493C68.7961 98.0493 75.5499 123.3 69.2964 166.443Z" fill="#CFD8DC"/>
<path d="M84.6382 96.11C84.6382 96.11 89.262 115.214 91.4602 128.094C93.6584 140.973 94.9849 161.884 94.9849 161.884L99.2676 159.694L94.9849 136.281C94.9849 136.281 96.2128 103.007 93.052 96.9076L84.6382 96.11Z" fill="#CFD8DC"/>
<path d="M84.6382 96.1099C84.6382 96.1099 93.7342 110.483 95.1592 128.993L95.9172 124.817C95.9172 124.817 95.2502 109.044 87.0183 95.7893L84.6382 96.1099Z" fill="#263238"/>
<path opacity="0.1" d="M84.6382 96.1099C84.6382 96.1099 93.7342 110.483 95.1592 128.993L95.9172 124.817C95.9172 124.817 95.2502 109.044 87.0183 95.7893L84.6382 96.1099Z" fill="white"/>
<path d="M68.7961 96.892C68.7961 96.892 70.115 120.743 64.0358 132.942L63.1187 131.159C63.1187 131.159 67.9471 117.169 65.2486 98.0493L68.7961 96.892Z" fill="#263238"/>
<path opacity="0.1" d="M68.7961 96.892C68.7961 96.892 70.115 120.743 64.0358 132.942L63.1187 131.159C63.1187 131.159 67.9471 117.169 65.2486 98.0493L68.7961 96.892Z" fill="white"/>
<path d="M86.8211 105.486C86.8211 105.486 87.708 96.2038 87.3365 94.9292C86.9651 93.6545 69.4023 93.7014 66.5977 96.11C63.7931 98.5185 70.4938 107.676 70.4938 107.676C70.4938 107.676 70.9713 99.3005 71.1987 98.7531C71.4261 98.2057 80.7419 97.1344 82.1897 97.5567C83.6375 97.979 86.8211 105.486 86.8211 105.486Z" fill="#CFD8DC"/>
<path opacity="0.2" d="M86.8211 105.486C86.8211 105.486 87.708 96.2038 87.3365 94.9292C86.9651 93.6545 69.4023 93.7014 66.5977 96.11C63.7931 98.5185 70.4938 107.676 70.4938 107.676C70.4938 107.676 70.9713 99.3005 71.1987 98.7531C71.4261 98.2057 80.7419 97.1344 82.1897 97.5567C83.6375 97.979 86.8211 105.486 86.8211 105.486Z" fill="black"/>
<path d="M79.9461 102.601C73.8821 101.819 72.1084 99.1441 72.1084 99.1441C74.5719 96.7512 74.1247 93.2166 73.4955 91.0113C73.3001 90.3124 73.0465 89.6321 72.7375 88.9781L79.9916 90.3779C79.8244 91.4122 79.7307 92.4576 79.7111 93.5059C79.6841 94.2937 79.7529 95.0818 79.9158 95.8519C80.4085 98.0884 81.644 98.1197 81.644 98.1197C82.9326 100.567 79.9461 102.601 79.9461 102.601Z" fill="#CFD8DC"/>
<path opacity="0.2" d="M79.7261 93.5294C79.6991 94.3171 79.7678 95.1052 79.9307 95.8754C77.0503 95.4844 74.8673 93.1071 73.4953 91.0426C73.2998 90.3436 73.0462 89.6634 72.7373 89.0094L79.9914 90.4092C79.8296 91.4412 79.741 92.484 79.7261 93.5294Z" fill="black"/>
<path d="M85.2826 78.5775C85.2826 78.5775 86.5712 74.7535 83.3952 69.9755C80.2192 65.1975 73.5412 64.1574 68.7355 69.9755C68.7355 69.9755 66.1204 70.1397 64.5437 74.7848C62.9671 79.4299 64.8621 88.157 72.3511 89.94C79.8402 91.7229 85.2826 78.5775 85.2826 78.5775Z" fill="#263238"/>
<path d="M75.0421 70.6636C81.2501 69.4515 83.8728 72.4857 85.5328 78.9919C87.6097 87.1247 86.9123 93.326 78.8321 93.0679C67.8486 92.7395 64.7257 72.6656 75.0421 70.6636Z" fill="#CFD8DC"/>
<path d="M81.4395 79.422C82.1056 80.2794 82.8691 81.0513 83.7135 81.7211C83.5782 82.0217 83.365 82.2779 83.0975 82.4615C82.83 82.645 82.5185 82.7487 82.1975 82.7611L81.4395 79.422Z" fill="#CFD8DC"/>
<path d="M77.5508 79.6332C77.657 80.1572 77.475 80.642 77.1339 80.7202C76.7928 80.7984 76.4366 80.4309 76.3229 79.9382C76.2092 79.4455 76.4063 78.9294 76.7398 78.8512C77.0733 78.773 77.4447 79.1093 77.5508 79.6332Z" fill="#263238"/>
<path d="M76.6035 78.8825L77.6192 78.1865C77.6192 78.1865 77.263 79.2657 76.6035 78.8825Z" fill="#263238"/>
<path d="M83.8345 78.1396C83.9407 78.6635 83.7512 79.1483 83.4176 79.2187C83.0841 79.2891 82.7203 78.9294 82.6066 78.4367C82.4929 77.9441 82.69 77.4358 83.0235 77.3576C83.357 77.2794 83.7284 77.6156 83.8345 78.1396Z" fill="#263238"/>
<path d="M82.8872 77.381L83.9029 76.6929C83.9029 76.6929 83.5467 77.772 82.8872 77.381Z" fill="#263238"/>
<path d="M76.6792 75.2306C76.1774 75.2629 75.6896 75.4136 75.2532 75.6713C74.8169 75.9289 74.4438 76.2864 74.1626 76.7164" stroke="#263238" stroke-width="0.707962" stroke-linecap="round" stroke-linejoin="round"/>
<path d="M81.106 74.081C81.5095 73.8876 81.9502 73.7907 82.3951 73.7975C82.84 73.8042 83.2777 73.9145 83.6756 74.1201" stroke="#263238" stroke-width="0.707962" stroke-linecap="round" stroke-linejoin="round"/>
<path d="M70.2288 82.7691C70.2288 82.7691 72.1617 76.9432 70.9868 72.9706C70.9868 72.9706 82.3568 65.393 85.2902 78.1474C85.2902 78.1474 84.4034 66.4878 73.6928 68.3099C62.9823 70.1319 65.9461 86.2177 72.3512 89.94C72.3512 89.94 69.0311 86.4054 70.2288 82.7691Z" fill="#263238"/>
<path d="M71.4866 83.9186C71.2883 83.1907 70.8196 82.573 70.1824 82.1996C69.5451 81.8262 68.7907 81.7273 68.0832 81.9245C66.2034 82.5188 66.0366 86.7651 70.9939 86.812C71.7065 86.812 71.9642 86.03 71.4866 83.9186Z" fill="#CFD8DC"/>
<path d="M85.5174 83.2617C85.5174 83.2617 84.6154 83.598 84.6381 84.3096C84.6533 84.8179 86.2981 84.9665 85.5174 83.2617Z" fill="#263238"/>
<path d="M70.9791 72.9706C70.9791 72.9706 77.0431 70.218 81.9701 75.2306C81.9701 75.2306 79.1352 69.9052 71.7295 71.8445C71.7295 71.8445 70.3651 72.1651 70.9791 72.9706Z" fill="#263238"/>
<path d="M70.979 72.9706C71.6234 74.0649 72.0421 75.2846 72.2091 76.5534C72.376 77.8222 72.2876 79.1129 71.9492 80.3448" stroke="#263238" stroke-width="0.5" stroke-linecap="round" stroke-linejoin="round"/>
<path d="M87.3895 83.9029L85.4945 83.0271L83.9785 86.4523L85.8735 87.3281C86.1266 87.443 86.3533 87.6118 86.5388 87.8233C86.7243 88.0349 86.8644 88.2845 86.9499 88.5558C87.0354 88.8271 87.1754 89.0768 87.3609 89.2883C87.5464 89.4999 87.7731 89.6687 88.0262 89.7836L103.186 96.8216C103.312 96.8802 103.448 96.9125 103.586 96.9167C103.724 96.9209 103.861 96.8968 103.99 96.8459C104.119 96.795 104.237 96.7183 104.337 96.6202C104.437 96.5221 104.518 96.4045 104.573 96.2742L106.264 92.3642C106.321 92.2344 106.352 92.0942 106.356 91.9518C106.36 91.8095 106.337 91.6677 106.287 91.5346C106.238 91.4016 106.164 91.28 106.069 91.1767C105.973 91.0735 105.859 90.9907 105.733 90.9331L90.5276 83.8951C90.276 83.7793 90.0035 83.7195 89.7279 83.7195C89.4524 83.7195 89.1799 83.7793 88.9283 83.8951C88.6849 84.0007 88.4237 84.0557 88.1596 84.0571C87.8956 84.0584 87.6339 84.006 87.3895 83.9029Z" fill="#CFD8DC"/>
<path opacity="0.7" d="M95.3713 86.116L90.5959 83.9107C90.3442 83.7949 90.0717 83.7351 89.7962 83.7351C89.5206 83.7351 89.2481 83.7949 88.9965 83.9107C88.743 84.0249 88.4695 84.0838 88.193 84.0838C87.9165 84.0838 87.6429 84.0249 87.3895 83.9107L85.4945 83.0349L83.9785 86.4601L85.8735 87.3359C86.1266 87.4508 86.3533 87.6196 86.5388 87.8312C86.7243 88.0427 86.8644 88.2924 86.9499 88.5637C87.0354 88.835 87.1754 89.0846 87.3609 89.2962C87.5464 89.5077 87.7731 89.6765 88.0262 89.7914L92.7941 91.9966L95.3713 86.116Z" fill="white"/>
<path opacity="0.7" d="M98.79 94.7415L103.255 96.7981C103.38 96.8567 103.516 96.8891 103.654 96.8932C103.792 96.8974 103.93 96.8734 104.059 96.8225C104.188 96.7716 104.306 96.6949 104.406 96.5968C104.506 96.4986 104.586 96.381 104.642 96.2508L106.332 92.3408C106.445 92.0783 106.452 91.7805 106.353 91.5124C106.253 91.2443 106.055 91.0276 105.802 90.9097L101.337 88.853L98.79 94.7415Z" fill="white"/>
<path opacity="0.2" d="M62.2845 123.464L60.6396 114.331L61.9889 112.962C61.9889 112.962 64.4296 118.092 62.2845 123.464Z" fill="black"/>
<path d="M59.2451 123.363L63.1185 120.641C63.1185 120.641 67.3406 112.962 68.7959 112.962C70.2513 112.962 71.0699 119.891 70.8425 120.399C70.6151 120.907 66.7038 124.457 65.9458 124.411L61.3296 128.586L59.2451 123.363Z" fill="#CFD8DC"/>
<path d="M58.2522 101.615C54.9397 101.842 42.2053 130.283 44.9038 137.376C47.6023 144.469 63.9144 128.352 63.9144 128.352L61.8527 121.118L56.7513 124.129C58.2396 121.748 59.8779 119.47 61.6556 117.31C61.6556 117.31 62.3681 111.398 61.6556 107.066C60.9431 102.733 58.2522 101.615 58.2522 101.615Z" fill="#CFD8DC"/>
<path opacity="0.1" d="M58.2522 101.615C54.9397 101.842 42.2053 130.283 44.9038 137.376C47.6023 144.469 63.9144 128.352 63.9144 128.352L61.8527 121.118L56.7513 124.129C58.2396 121.748 59.8779 119.47 61.6556 117.31C61.6556 117.31 62.3681 111.398 61.6556 107.066C60.9431 102.733 58.2522 101.615 58.2522 101.615Z" fill="black"/>
<path d="M129.505 219.447L135.046 223.905L135.804 223.709L130.263 218.477L125.987 207.404C125.843 205.84 125.677 204.222 125.449 202.595C125.358 201.938 125.214 201.195 125.07 200.531C124.926 199.866 124.752 199.232 124.585 198.599C124.244 197.324 123.888 196.073 123.524 194.822C122.099 189.903 120.583 185.047 119.029 180.183L117.187 142.201L112.556 142.506L115.406 180.652V180.918L115.474 181.129C117.111 186.024 118.718 190.943 120.219 195.862C120.59 197.09 120.977 198.325 121.295 199.553C121.477 200.163 121.636 200.773 121.788 201.383C121.94 201.993 122.031 202.509 122.129 203.135C122.508 205.606 122.758 208.202 123.016 210.759C123.895 220.3 124.532 229.895 125.154 239.49L123.418 247.568L124.646 257.007L123.418 264.107L124.085 264.303L125.881 256.85L124.828 248.459L126.124 244.745L130.535 260.049L132.051 282.891L134.325 282.75L133.113 259.728V259.595L133.067 259.439L128.133 241.453C127.685 232.35 127.193 223.263 126.518 214.153L129.505 219.447Z" fill="#263238"/>
<path d="M124.312 131.472L117.915 137.274L113.715 136.375C113.715 136.375 107.72 141.31 108.318 142.037C108.917 142.764 110.918 146.604 112.321 146.651C113.723 146.698 119.552 143.022 119.552 143.022L127.132 137.697L124.312 131.472Z" fill="#CFD8DC"/>
<path d="M154.708 74.9803C151.32 77.6702 148.387 80.9204 146.029 84.5989C142.155 90.6594 137.334 112.18 134.659 117.193C131.983 122.205 120.348 133.732 120.348 133.732L123.834 141.951C123.834 141.951 140.056 132.457 146.787 123.003C153.518 113.549 160.431 83.4103 160.431 83.4103L154.708 74.9803Z" fill="#CFD8DC"/>
<path opacity="0.6" d="M154.708 74.9803C151.32 77.6702 148.387 80.9204 146.029 84.5989C142.155 90.6594 137.334 112.18 134.659 117.193C131.983 122.205 120.348 133.732 120.348 133.732L123.834 141.951C123.834 141.951 140.056 132.457 146.787 123.003C153.518 113.549 160.431 83.4103 160.431 83.4103L154.708 74.9803Z" fill="white"/>
<path d="M191.562 44.2478L183.103 42.5353C181.713 41.6137 180.172 40.9618 178.555 40.6115C175.523 39.8295 173.249 39.1414 172.37 40.1502C171.49 41.1589 169.974 44.7874 170.801 45.327C173.5 46.4935 176.289 47.4273 179.139 48.1187C179.882 48.1291 180.623 48.0236 181.337 47.8059L190.531 50.5117L191.562 44.2478Z" fill="#CFD8DC"/>
<path d="M184.528 276.799L190.948 277.495L191.274 273.655L192.153 263.208L185.733 262.504L184.755 274.046L184.528 276.799Z" fill="#CFD8DC"/>
<path d="M152.472 275.962H158.695L158.748 274.508L158.756 274.328L159.074 265.014L159.081 264.827L159.21 261.253H152.98L152.472 275.962Z" fill="#CFD8DC"/>
<path opacity="0.2" d="M185.733 262.504L184.755 274.046L191.274 273.655L192.153 263.208L185.733 262.504Z" fill="black"/>
<path opacity="0.2" d="M152.51 275.141H152.517L158.748 274.328H158.756L159.082 265.343H159.074L152.836 265.851L152.517 274.86L152.51 275.141Z" fill="black"/>
<path d="M159.559 275.571H151.979C151.855 275.573 151.735 275.618 151.639 275.699C151.543 275.78 151.476 275.892 151.449 276.017L150.221 281.733C150.195 281.856 150.193 281.982 150.216 282.105C150.238 282.228 150.283 282.345 150.349 282.45C150.416 282.554 150.501 282.645 150.602 282.715C150.702 282.785 150.815 282.834 150.933 282.859C150.999 282.867 151.065 282.867 151.13 282.859C153.579 282.82 155.36 282.664 158.43 282.664C160.325 282.664 166.01 282.867 168.648 282.867C171.286 282.867 171.604 280.208 170.535 279.958C165.737 278.887 162.121 277.385 160.59 275.97C160.307 275.708 159.939 275.566 159.559 275.571Z" fill="#263238"/>
<path d="M191.63 275.368H184.05C183.926 275.37 183.806 275.415 183.71 275.496C183.614 275.577 183.547 275.689 183.52 275.814L182.307 281.53C182.257 281.777 182.304 282.034 182.438 282.245C182.571 282.456 182.78 282.604 183.019 282.656H183.216C185.665 282.656 187.446 282.461 190.523 282.461C192.411 282.461 198.103 282.664 200.734 282.664C203.364 282.664 203.69 280.005 202.621 279.755C197.823 278.676 194.215 277.182 192.676 275.759C192.388 275.497 192.014 275.357 191.63 275.368Z" fill="#263238"/>
<path d="M192.744 272.693H183.61C183.61 272.693 184.368 191.6 174.514 164.214C173.817 173.27 172.998 182.662 172.24 190.49C171.755 195.33 171.278 199.498 170.83 202.665C167.95 223.091 160.696 273.507 160.696 273.507H151.676C151.676 273.507 152.745 225.195 153.813 205.121C154.988 183.334 155.496 135.437 155.549 131.355H188.583C191.728 148.512 199.794 217.14 192.744 272.693Z" fill="#263238"/>
<path d="M176.614 59.3482C176.531 59.661 176.448 59.9659 176.341 60.2631C175.755 61.9625 174.682 63.4379 173.264 64.4937C172.905 64.7618 172.528 65.0022 172.135 65.2132C171.103 65.779 169.962 66.1 168.795 66.1528C167.628 66.2055 166.464 65.9887 165.388 65.5181C164.419 65.0939 163.544 64.4683 162.819 63.6804C159.696 60.4351 159.787 56.6815 159.43 50.3317C159.325 48.8492 159.589 47.3635 160.197 46.0159C160.805 44.6683 161.737 43.5037 162.905 42.6329C164.073 41.7621 165.437 41.214 166.868 41.0409C168.299 40.8677 169.75 41.0752 171.081 41.6437C177.092 44.1852 177.926 53.6317 176.614 59.3482Z" fill="#CFD8DC"/>
<path opacity="0.2" d="M173.241 64.4937C172.882 64.7618 172.505 65.0022 172.112 65.2132C171.08 65.779 169.939 66.1 168.772 66.1528C167.605 66.2056 166.441 65.9887 165.366 65.5182C165.64 64.7549 166.009 64.032 166.465 63.3677C168.782 63.0647 171.134 63.4556 173.241 64.4937Z" fill="black"/>
<path d="M160.848 72.7361C163.88 75.5747 171.316 74.5268 171.316 74.5268C171.316 74.5268 175.947 73.2131 174.977 71.7195C172.24 71.2503 170.921 69.9365 170.376 68.2552C170.077 67.211 169.981 66.1159 170.095 65.0334C170.144 64.4327 170.222 63.835 170.33 63.2426L161.143 56.2046C162.348 60.8575 163.819 69.3735 160.848 72.7361Z" fill="#CFD8DC"/>
<path d="M169.307 38.8989C169.307 38.8989 173.302 37.1707 176.083 39.8686C178.426 42.152 176.902 45.6632 178.32 48.5801C179.737 51.4969 174.621 53.405 174.621 53.405C174.621 53.405 173.264 56.4079 170.914 56.2202C170.914 56.2202 168.996 58.6209 169.307 61.0921C169.618 63.5632 166.161 65.5338 161.462 65.4713C156.762 65.4087 158.642 62.3433 158.642 62.3433C157.281 60.7229 156.181 58.888 155.382 56.9084C154.431 54.5005 153.976 51.9144 154.048 49.3151C154.005 47.9654 154.222 46.6201 154.688 45.358C155.154 44.0959 155.859 42.9422 156.762 41.9643C159.938 38.328 167.374 36.5294 169.307 38.8989Z" fill="#263238"/>
<path d="M169.739 54.0228C169.858 54.6196 170.104 55.182 170.457 55.67C170.811 56.1579 171.265 56.5594 171.786 56.8458C173.044 57.3932 173.87 55.5711 173.689 53.6631C173.514 51.9661 172.665 49.5888 171.324 49.9016C169.982 50.2144 169.3 52.318 169.739 54.0228Z" fill="#CFD8DC"/>
<path d="M177.137 39.7591C178.987 42.1051 173.279 58.4802 164.736 60.0286C156.194 61.5769 153.366 62.1947 154.632 55.5399C154.632 55.5399 152.017 49.8156 154.033 43.8099C154.033 43.8099 153.048 43.6535 153.275 41.6437C153.503 39.634 160.704 34.2147 165.35 33.7534C169.997 33.292 175.098 39.1101 175.098 39.1101C175.098 39.1101 176.046 38.3672 177.137 39.7591Z" fill="#CFD8DC"/>
<path opacity="0.2" d="M174.484 164.175C173.787 173.231 172.968 182.646 172.21 190.474C171.088 179.174 169.709 171.112 169.709 171.112C169.709 171.112 168.413 170.017 164.865 164.175C161.318 158.334 164.865 147.433 164.865 147.433C164.782 157.56 174.484 164.175 174.484 164.175Z" fill="black"/>
<path d="M193.768 270.035L193.321 272.693H182.534V270.238L193.768 270.035Z" fill="#CFD8DC"/>
<path d="M161.727 271.059L160.696 273.507H151.646L151.055 271.059H161.727Z" fill="#CFD8DC"/>
<path d="M155.246 136.938V141.951L189.864 139.448V135.007L155.246 136.938Z" fill="#CFD8DC"/>
<path opacity="0.2" d="M155.246 136.938V141.951L189.864 139.448V135.007L155.246 136.938Z" fill="white"/>
<path d="M191.554 132.802C191.587 133.251 191.532 133.703 191.393 134.131C191.254 134.558 191.032 134.952 190.743 135.29C190.453 135.627 190.1 135.902 189.706 136.096C189.311 136.291 188.883 136.401 188.447 136.422L155.959 138.057C155.711 138.07 155.463 138.032 155.23 137.944C154.997 137.856 154.784 137.72 154.603 137.545C154.422 137.369 154.278 137.158 154.179 136.923C154.08 136.689 154.028 136.436 154.026 136.18C153.821 115.777 147.052 78.6715 151.676 74.9804C156.459 71.1643 179.919 69.1624 179.919 69.1624C181.02 71.8312 181.982 74.5591 182.8 77.3343C182.898 77.6862 183.012 78.0381 183.103 78.3978C184.452 82.9881 185.581 87.946 186.559 92.9586C186.627 93.2949 186.696 93.639 186.756 93.9752C189.065 106.813 190.667 119.776 191.554 132.802Z" fill="#CFD8DC"/>
<path opacity="0.6" d="M191.554 132.802C191.587 133.251 191.532 133.703 191.393 134.131C191.254 134.558 191.032 134.952 190.743 135.29C190.453 135.627 190.1 135.902 189.706 136.096C189.311 136.291 188.883 136.401 188.447 136.422L155.959 138.057C155.711 138.07 155.463 138.032 155.23 137.944C154.997 137.856 154.784 137.72 154.603 137.545C154.422 137.369 154.278 137.158 154.179 136.923C154.08 136.689 154.028 136.436 154.026 136.18C153.821 115.777 147.052 78.6715 151.676 74.9804C156.459 71.1643 179.919 69.1624 179.919 69.1624C180.874 71.4458 181.753 73.9326 182.565 76.5601C182.64 76.8181 182.724 77.0762 182.8 77.3421C182.875 77.608 183.012 78.0459 183.103 78.4056C184.361 82.6753 185.422 87.2657 186.355 91.9264L186.559 92.9664C186.627 93.3027 186.696 93.6468 186.756 93.983C189.065 106.819 190.667 119.779 191.554 132.802Z" fill="white"/>
<path d="M142.299 89.6586C142.299 89.6586 138.873 78.0224 143.899 72.2122C148.924 66.4019 166.548 67.4341 168.466 67.8486C174.37 69.1154 176.463 79.0938 178.57 89.7446C180.677 100.395 183.08 136.844 179.479 139.159C175.879 141.474 151.494 144.242 147.295 141.927C143.095 139.613 142.299 89.6586 142.299 89.6586Z" fill="#263238"/>
<path d="M139.101 89.291C139.101 89.291 135.682 77.428 140.7 71.4379C145.718 65.4478 163.357 66.5504 165.267 66.9727C171.172 68.2708 171.612 76.0204 173.241 94.5929C176.129 127.562 178.706 138.15 175.114 140.512C171.521 142.874 148.295 145.204 144.096 142.811C139.897 140.418 139.101 89.291 139.101 89.291Z" fill="#CFD8DC"/>
<path d="M171.657 73.0176C171.657 73.0176 172.915 67.9268 179.919 69.1623C179.919 69.1623 175.598 69.1076 175.788 83.8248C175.977 98.5421 181.162 118.092 181.162 118.092C181.162 118.092 187.453 117.795 189.053 108.489L189.811 111.312C189.811 111.312 188.825 124.895 179.373 127.586C179.426 127.562 175.136 80.5952 171.657 73.0176Z" fill="#263238"/>
<path opacity="0.2" d="M186.355 91.9185C178.138 84.4348 180.95 75.9735 180.95 75.9735L182.565 76.56C182.641 76.8181 182.724 77.0761 182.8 77.342C182.876 77.6079 183.012 78.0458 183.103 78.4055C184.361 82.6674 185.422 87.2578 186.355 91.9185Z" fill="black"/>
<path d="M217.061 57.8781C215.477 46.977 192.047 43.2782 186.468 42.5509C185.539 45.4725 185.234 48.5672 185.574 51.6221C185.574 51.6221 202.523 56.4392 202.667 57.6748C202.811 58.9103 182.731 67.1135 179.927 69.1311C179.927 69.1311 178.577 72.2122 180.768 78.2492C182.595 83.2696 184.778 84.6538 184.778 84.6538C184.778 84.6538 218.865 70.2337 217.061 57.8781Z" fill="#CFD8DC"/>
<path opacity="0.6" d="M217.061 57.8781C215.477 46.977 192.047 43.2782 186.468 42.5509C185.539 45.4725 185.234 48.5672 185.574 51.6221C185.574 51.6221 202.523 56.4392 202.667 57.6748C202.811 58.9103 182.731 67.1135 179.927 69.1311C179.927 69.1311 178.577 72.2122 180.768 78.2492C182.595 83.2696 184.778 84.6538 184.778 84.6538C184.778 84.6538 218.865 70.2337 217.061 57.8781Z" fill="white"/>
</svg>
