<svg width="61" height="20" viewBox="0 0 61 20" fill="none" xmlns="http://www.w3.org/2000/svg">
<path d="M13.758 5.39502C13.758 4.08541 13.2598 2.91815 12.2633 1.89324C11.2954 0.868327 9.58719 0.355872 7.13879 0.355872H0.220641V20H7.90747C10.2989 20 11.9929 19.4875 12.9893 18.4626C13.9858 17.4377 14.484 16.1993 14.484 14.7473C14.484 12.2989 13.2883 10.6762 10.8968 9.879C12.8043 9.16726 13.758 7.6726 13.758 5.39502ZM5.04626 9.11032V2.10676H6.66904C8.20641 2.10676 8.97509 3.27402 8.97509 5.60854C8.97509 7.94306 8.20641 9.11032 6.66904 9.11032H5.04626ZM5.04626 18.2491V10.8185H7.2669C8.00712 10.8185 8.59075 11.2171 9.01779 12.0142C9.47331 12.7829 9.70107 13.694 9.70107 14.7473C9.70107 17.0819 8.88968 18.2491 7.2669 18.2491H5.04626ZM22.1556 20V0.355872H17.33V20H22.1556ZM41.9422 20L38.9102 12.6975C38.6824 12.1851 38.2554 11.7438 37.6291 11.3737C39.9636 10.6619 41.1308 9.01068 41.1308 6.41993C41.1308 4.88256 40.7038 3.53025 39.8497 2.36299C38.8248 1.02491 36.96 0.355872 34.2554 0.355872H26.6113V20H31.4369V11.8434H32.2483C32.8177 11.8434 33.1878 11.9146 33.3586 12.0569C33.5579 12.1993 33.7572 12.5125 33.9565 12.9964L36.8177 20H41.9422ZM31.4369 10.1352V2.10676H33.5721C34.4262 2.10676 35.0953 2.53381 35.5792 3.3879C36.0632 4.24199 36.3052 5.20996 36.3052 6.29181C36.3052 7.37367 36.0632 8.2847 35.5792 9.02491C35.0953 9.76512 34.4262 10.1352 33.5721 10.1352H31.4369ZM44.7988 0.355872V20H51.8877C55.0194 20 57.1546 19.1459 58.2934 17.4377C59.4607 15.7295 60.0443 13.3096 60.0443 10.1779C60.0443 6.36299 59.2614 3.7153 57.6956 2.23488C56.386 0.982206 54.45 0.355872 51.8877 0.355872H44.7988ZM49.6244 18.2491V2.10676H51.1191C52.2009 2.10676 53.0408 2.50534 53.6386 3.30249C54.265 4.07117 54.6778 5.01068 54.8771 6.121C55.0763 7.20285 55.176 8.55516 55.176 10.1779C55.176 11.8007 55.0763 13.1673 54.8771 14.2776C54.6778 15.3594 54.265 16.2989 53.6386 17.0961C53.0408 17.8648 52.2009 18.2491 51.1191 18.2491H49.6244Z" fill="white"/>
</svg>
